<?xml version="1.0" encoding="utf-8"?>
<!-- Generator: Adobe Illustrator 28.0.0, SVG Export Plug-In . SVG Version: 6.00 Build 0)  -->
<svg version="1.1" id="Capa_1" xmlns="http://www.w3.org/2000/svg" xmlns:xlink="http://www.w3.org/1999/xlink" x="0px" y="0px"
	 viewBox="0 0 137 80" style="enable-background:new 0 0 137 80;" xml:space="preserve">
<path d="M137,19.6c-2.5,4.2-2.7,3.8-11.5,20.8c-2.3,4.4-3,5.8-3.2,6.1v13.9h-5.2V47l-13.6-27.5h5.9l12.1,24.6c0.6-1.2,1.6-3.5,2.3-5
	c3.4-8,5.6-14.7,7.6-19.6H137z"/>
<path d="M112.2,60.4H88.7V19.6H94v39c8-0.7,9.4-0.8,18.2-2.8V60.4z"/>
<path d="M84.8,60.4H61.3V19.6h5.3v39c8-0.7,9.4-0.8,18.2-2.8V60.4z"/>
<path d="M54.6,60.4H43c-10.8,0-16-4.1-16-13.6V19.6h5.3v25.9c0,8.8,5,12.8,13.5,12.8h3.5V19.6h5.3V60.4z"/>
<path d="M20.3,49c0,7-3.9,12-10.4,12c-4.7,0-8.1-2.4-9.9-7.8h5.6c0.1,3.9,1.7,5.5,4.3,5.5c2.9,0,5-2.1,5-6.4V19.6h5.4V49z"/>
</svg>
