<svg width="137" height="80" viewBox="0 0 137 80" fill="none" xmlns="http://www.w3.org/2000/svg">
<path d="M119 25C117.168 28.1196 117.012 27.7687 110.499 40.3641C108.784 43.6398 108.277 44.6146 108.16 44.8486V55.1044H104.299V45.2386L94.2383 25H98.6058L107.536 43.1718C107.965 42.2749 108.745 40.5591 109.212 39.4673C111.747 33.579 113.346 28.6656 114.828 25H119Z" fill="black"/>
<path d="M100.753 55.1044H83.4004V25H87.2999V53.7395C93.1882 53.2326 94.2021 53.1156 100.753 51.7118V55.1044Z" fill="black"/>
<path d="M80.5316 55.1044H63.1787V25H67.0782V53.7395C72.9665 53.2326 73.9804 53.1156 80.5316 51.7118V55.1044Z" fill="black"/>
<path d="M58.249 55.1044H49.6701C41.715 55.1044 37.8545 52.1017 37.8545 45.0826V25H41.754V44.1077C41.754 50.5809 45.4586 53.5446 51.7368 53.5446H54.3495V25H58.249V55.1044Z" fill="black"/>
<path d="M32.9742 46.7204C32.9742 51.9068 30.0885 55.5333 25.2921 55.5333C21.8605 55.5333 19.2868 53.7395 18 49.801H22.1335C22.1725 52.6477 23.3814 53.8565 25.3311 53.8565C27.4369 53.8565 28.9967 52.3357 28.9967 49.1381V25H32.9742V46.7204Z" fill="black"/>
</svg>
